<svg width="281" height="261" viewBox="0 0 281 261" fill="none" xmlns="http://www.w3.org/2000/svg">
<path d="M140.745 1C142.3 1 143.848 1.02742 145.39 1.0818M140.745 1L145.39 1.0818M140.745 1L136.117 1.08123M140.745 1C139.196 1 137.653 1.02723 136.117 1.08123M216.66 260C245.107 243.274 267.557 217.435 280 186.493M280 74.5071C267.893 44.4017 246.315 19.1276 218.956 2.3775M145.39 1.0818C214.731 3.52814 270.193 60.5345 270.193 130.5C270.193 202.021 212.237 260 140.745 260C69.2529 260 11.297 202.021 11.297 130.5C11.297 60.529 66.7683 3.51923 136.117 1.08123M1 185.258C13.3386 216.748 36.0053 243.052 64.8305 260M62.5429 2.37252C34.8065 19.3511 13.0103 45.0901 1 75.7422M252.541 130.5C252.541 192.268 202.488 242.341 140.745 242.341C79.0019 242.341 28.949 192.268 28.949 130.5C28.949 68.732 79.0019 18.6591 140.745 18.6591C202.488 18.6591 252.541 68.732 252.541 130.5ZM235.87 130.5C235.87 183.057 193.281 225.663 140.745 225.663C88.2092 225.663 45.6204 183.057 45.6204 130.5C45.6204 77.943 88.2092 35.3371 140.745 35.3371C193.281 35.3371 235.87 77.943 235.87 130.5Z" stroke="url(#paint0_linear_7_72)" stroke-width="2"/>
<defs>
<linearGradient id="paint0_linear_7_72" x1="140.745" y1="-19.6023" x2="140.745" y2="280.602" gradientUnits="userSpaceOnUse">
<stop offset="0.0734577"/>
<stop offset="0.322855" stop-color="#EBEBEB" stop-opacity="0.8"/>
<stop offset="0.418369" stop-color="white" stop-opacity="0.906897"/>
<stop offset="0.451976" stop-color="white"/>
<stop offset="0.483814" stop-color="white" stop-opacity="0.914471"/>
<stop offset="0.520958" stop-color="white" stop-opacity="0.891793"/>
<stop offset="0.63416" stop-color="#E5E5E5" stop-opacity="0.8"/>
<stop offset="0.987916"/>
</linearGradient>
</defs>
</svg>
